Genre:Horror | Mystery | Thriller
Language:English
IMDb:http://www.imdb.com/title/tt1452628/
Source:Rex Thx


Format                           : MPEG-4
Format profile                   : Base Media
Codec ID                         : isom
File size                        : 782 MiB
Duration                         : 1h 31mn
Overall bit rate                 : 1 199 Kbps
Movie name                       : Vanishing.On.7th.Street.2010.PPVRip.H264.Feel-Free


Video
Format settings, CABAC           : Yes
Format settings, ReFrames        : 4 frames
Codec ID                         : avc1
Codec ID/Info                    : Advanced Video Coding
Duration                         : 1h 31mn
Bit rate mode                    : Variable
Bit rate                         : 1 000 Kbps
Width                            : 720 pixels
Height                           : 384 pixels
Display aspect ratio             : 1.875
Frame rate mode                  : Constant
Frame rate                       : 23.976 fps
Color space                      : YUV
Chroma subsampling               : 4:2:0
Bit depth                        : 8 bits
Scan type                        : Progressive
Bits/(Pixel*Frame)               : 0.151
Stream size                      : 670 MiB (86%)

Audio
ID                               : 2
Format                           : AAC
Format/Info                      : Advanced Audio Codec
Format version                   : Version 4
Format profile                   : LC
Codec ID                         : 40
Duration                         : 1h 31mn
Bit rate mode                    : Variable
Bit rate                         : 165 Kbps
Channel(s)                       : 2 channels
Channel positions                : Front: L R
Sampling rate                    : 48.0 KHz
Stream size                      : 108 MiB (14%)


      
Plot:
   When a massive power outage plunges the city of Detroit into total darkness, a disparate group of individuals find themselves alone

 
http://shareimage.org/images/gy3vkskp7r0hiadrsd3.png
 
http://shareimage.org/images/s42x1gox6jc9268pufza.png
 
http://shareimage.org/images/3pls89i4v25yzfe9lvfw.png
 
http://shareimage.org/images/r4tlwf35qp8c5demr.png
 
http://shareimage.org/images/lzciw63bzd50vlbbkn3.png
 
http://shareimage.org/images/n14x5ry7gy8lsj9vhg5.png

Greets:

INK,CRYS,IMAGINE,LKRG,FXG,3Li,FLAWL3SS,TA,iLLUSiON,ViSiON,LU,TheFalcon007,PrisM,Noir,WBZ,LAP,Rx,Kingdom,SAFCuk009+Fabreezy,HDLiTE,TWiZTED,ExtraTorrentRG.ELEKTRI4KA,MAGNAT,CM8
                And to all the other p2p grps past and present 
 



Make sure its a real Feel-Free release @ extratorrent